<svg xmlns="http://www.w3.org/2000/svg" width="256" height="256" viewBox="0 0 100 100"><path fill="#4a90e2" d="M37.94 9.45L37.94 9.45L59.90 66.06Q61.25 69.48 62.96 70.61Q64.67 71.73 66.11 71.83L66.11 71.83L66.11 73.63Q64.31 73.44 61.70 73.40Q59.09 73.36 56.48 73.36L56.48 73.36Q52.97 73.36 49.91 73.40Q46.85 73.44 44.96 73.63L44.96 73.63L44.96 71.83Q49.55 71.64 50.81 70.25Q52.07 68.86 50.27 64.27L50.27 64.27L33.53 19.54L34.97 18.37L19.31 59.05Q17.42 63.91 17.51 66.65Q17.60 69.39 19.58 70.56Q21.56 71.73 25.34 71.83L25.34 71.83L25.34 73.63Q22.82 73.44 20.08 73.40Q17.33 73.36 14.99 73.36L14.99 73.36Q12.74 73.36 11.17 73.40Q9.59 73.44 8.24 73.63L8.24 73.63L8.24 71.83Q10.04 71.38 11.93 69.71Q13.82 68.05 15.35 64.00L15.35 64.00L36.50 9.45Q36.86 9.45 37.22 9.45Q37.58 9.45 37.94 9.45ZM23.00 47.70L48.92 47.70L48.92 49.51L22.10 49.51L23.00 47.70ZM63.77 90.55L63.77 90.55L63.77 88.83Q67.82 88.75 70.57 86.86Q73.31 84.97 74.71 80.60Q76.10 76.23 76.10 68.94L76.10 68.94L76.10 19.45Q76.10 16.12 75.56 14.54Q75.02 12.97 73.45 12.38Q71.87 11.80 68.81 11.71L68.81 11.71L68.81 9.91Q70.70 10.00 73.76 10.09Q76.82 10.18 80.15 10.18L80.15 10.18Q83.48 10.18 86.59 10.09Q89.69 10.00 91.76 9.91L91.76 9.91L91.76 11.71Q88.70 11.80 87.13 12.38Q85.55 12.97 85.01 14.54Q84.47 16.12 84.47 19.45L84.47 19.45L84.47 52.39Q84.47 56.08 84.38 60.40Q84.29 64.72 83.98 68.77Q83.66 72.81 82.94 75.88L82.94 75.88Q81.41 82.17 76.51 86.36Q71.60 90.55 63.77 90.55Z"></path></svg>